<svg xmlns="http://www.w3.org/2000/svg" xmlns:xlink="http://www.w3.org/1999/xlink" width="current" height="current" viewBox="0 0 682 682"><defs><clipPath id="a"><path d="M62.5,0A62.5,62.5,0,0,1,125,62.5v295a62.5,62.5,0,0,1-125,0V62.5A62.5,62.5,0,0,1,62.5,0Z" transform="translate(-3593.388 -2876.5) rotate(45)" fill="#383b4b"/></clipPath></defs><g transform="translate(4187.5 2995)"><path d="M381.971,134C224.034,134,96,262.047,96,420S224.034,706,381.971,706,606.3,596.314,608,595.69" transform="translate(-4228.5 -3074)" fill="none" stroke="#1cd265" stroke-linecap="round" stroke-miterlimit="10" stroke-width="110"/><g transform="translate(-0.5)"><path d="M62.5,0A62.5,62.5,0,0,1,125,62.5v175a62.5,62.5,0,0,1-125,0V62.5A62.5,62.5,0,0,1,62.5,0Z" transform="translate(-4015 -2703.259) rotate(-45)" fill="#ffb429" opacity="0.996"/><path d="M62.5,0A62.5,62.5,0,0,1,125,62.5v295a62.5,62.5,0,0,1-125,0V62.5A62.5,62.5,0,0,1,62.5,0Z" transform="translate(-3593.388 -2876.5) rotate(45)" fill="#9b72ff"/><g clip-path="url(#a)"><path d="M62.5,0A62.5,62.5,0,0,1,125,62.5v175a62.5,62.5,0,0,1-125,0V62.5A62.5,62.5,0,0,1,62.5,0Z" transform="translate(-4015 -2703.259) rotate(-45)" fill="#383b4b" opacity="0.996"/></g></g></g></svg>