<svg xmlns="http://www.w3.org/2000/svg" width="current" height="current" viewBox="0 0 682 682">
  <defs>
    <clipPath id="clip-path">
      <path d="M62.5,0A62.5,62.5,0,0,1,125,62.5v295a62.5,62.5,0,1,1-125,0V62.5A62.5,62.5,0,0,1,62.5,0Z" transform="translate(-3593.388 -2876.5) rotate(45)" fill="#f2e9e4"/>
    </clipPath>
  </defs>
  <g id="logo" transform="translate(-156 -229)">
    <path d="M381.971,134C224.034,134,96,262.047,96,420A285.981,285.981,0,0,0,381.971,706C539.908,706,606.3,596.314,608,595.69" transform="translate(115 150)" fill="none" stroke="#1cd265" stroke-linecap="round" stroke-miterlimit="10" stroke-width="110"/>
    <path d="M62.5,0A62.5,62.5,0,0,1,125,62.5v175a62.5,62.5,0,0,1-125,0V62.5A62.5,62.5,0,0,1,62.5,0Z" transform="translate(328 520.741) rotate(-45)" fill="#7678ed" />
    <path d="M62.5,0A62.5,62.5,0,0,1,125,62.5v295a62.5,62.5,0,1,1-125,0V62.5A62.5,62.5,0,0,1,62.5,0Z" transform="translate(749.612 347.5) rotate(45)" fill="#f7b801"/>
    <g transform="translate(4343 3224)" clip-path="url(#clip-path)">
      <path d="M62.5,0A62.5,62.5,0,0,1,125,62.5v175a62.5,62.5,0,0,1-125,0V62.5A62.5,62.5,0,0,1,62.5,0Z" transform="translate(-4015 -2703.259) rotate(-45)" fill="#f2e9e4" />
    </g>
  </g>
</svg>
